<svg width="96" height="45" viewBox="0 0 96 45" fill="none" xmlns="http://www.w3.org/2000/svg">
<g clip-path="url(#clip0_149_1352)">
<mask id="mask0_149_1352" style="mask-type:alpha" maskUnits="userSpaceOnUse" x="0" y="0" width="96" height="45">
<path d="M96 0.5H0V44.5H96V0.5Z" fill="#C4C4C4"/>
</mask>
<g mask="url(#mask0_149_1352)">
<mask id="mask1_149_1352" style="mask-type:alpha" maskUnits="userSpaceOnUse" x="49" y="14" width="31" height="31">
<path fill-rule="evenodd" clip-rule="evenodd" d="M49.1807 14.3284H79.3945V44.4996H49.1807V14.3284Z" fill="white"/>
</mask>
<g mask="url(#mask1_149_1352)">
<path fill-rule="evenodd" clip-rule="evenodd" d="M76.896 30.1885C76.4965 36.7703 71.0128 41.9834 64.3156 41.9834C57.3468 41.9834 51.7067 36.357 51.7067 29.4129C51.7067 23.8357 55.3456 19.107 60.389 17.4619C60.4811 16.85 60.5285 16.2238 60.5285 15.5852C60.5285 15.3232 60.519 15.0659 60.5067 14.8096C53.9906 16.4934 49.1807 22.3931 49.1807 29.4129C49.1807 37.7428 55.953 44.4995 64.3156 44.4995C72.2616 44.4995 78.7814 38.385 79.3945 30.6142C78.5394 30.5404 77.7045 30.3976 76.896 30.1885ZM64.3161 16.8416C70.6349 16.8416 75.8746 21.4833 76.7846 27.5383C77.6159 27.8069 78.485 27.9942 79.3846 28.0897C78.7109 20.3776 72.2196 14.3284 64.3161 14.3284C63.8731 14.3284 63.4366 14.3482 63.0076 14.3841C63.0351 14.7805 63.0522 15.1806 63.0522 15.5854C63.0522 16.0319 63.0295 16.4747 62.9953 16.9099C63.4279 16.8644 63.8673 16.8416 64.3161 16.8416Z" fill="white"/>
</g>
<mask id="mask2_149_1352" style="mask-type:alpha" maskUnits="userSpaceOnUse" x="16" y="14" width="31" height="31">
<path fill-rule="evenodd" clip-rule="evenodd" d="M16.3936 14.329H46.6103V44.4999H16.3936V14.329Z" fill="white"/>
</mask>
<g mask="url(#mask2_149_1352)">
<path fill-rule="evenodd" clip-rule="evenodd" d="M46.6103 30.6138C45.9972 38.3856 39.4802 44.5001 31.5285 44.5001C23.1677 44.5001 16.3936 37.7434 16.3936 29.4125C16.3936 22.3937 21.2045 16.4939 27.7216 14.8102C27.7329 15.0655 27.7414 15.3238 27.7414 15.5848C27.7414 16.2244 27.6931 16.8505 27.6019 17.4625C22.5595 19.1075 18.9214 23.8363 18.9214 29.4125C18.9214 36.3566 24.5598 41.984 31.5285 41.984C38.2286 41.984 43.7123 36.7708 44.1118 30.1891C44.9174 30.3972 45.7562 30.541 46.6103 30.6138ZM30.2082 16.9103C30.2443 16.4753 30.2671 16.0325 30.2671 15.5852C30.2671 15.1813 30.25 14.7811 30.2224 14.3847C30.6513 14.3488 31.0878 14.329 31.5291 14.329C39.4334 14.329 45.9324 20.3782 46.6061 28.0903C45.7008 27.9938 44.8289 27.8075 43.9995 27.5389C43.0895 21.4839 37.8488 16.8414 31.5291 16.8414C31.0821 16.8414 30.6409 16.865 30.2082 16.9103Z" fill="white"/>
</g>
<mask id="mask3_149_1352" style="mask-type:alpha" maskUnits="userSpaceOnUse" x="65" y="0" width="31" height="31">
<path fill-rule="evenodd" clip-rule="evenodd" d="M65.6162 0.5H95.8377V30.6712H65.6162V0.5Z" fill="white"/>
</mask>
<g mask="url(#mask3_149_1352)">
<path fill-rule="evenodd" clip-rule="evenodd" d="M95.8377 15.5857C95.8377 23.9175 89.0644 30.6714 80.7046 30.6714C72.7918 30.6714 66.3023 24.6231 65.6286 16.91C66.5338 17.0036 67.4002 17.1928 68.2342 17.4624C69.1414 23.5154 74.3774 28.1581 80.7046 28.1581C87.6676 28.1581 93.3135 22.5278 93.3135 15.5857C93.3135 8.64446 87.6676 3.01428 80.7046 3.01428C73.9988 3.01428 68.5189 8.22825 68.1195 14.811C67.3081 14.6029 66.4769 14.4591 65.6162 14.3843C66.2359 6.61355 72.752 0.5 80.7046 0.5C89.0644 0.5 95.8377 7.25489 95.8377 15.5857Z" fill="white"/>
</g>
<mask id="mask4_149_1352" style="mask-type:alpha" maskUnits="userSpaceOnUse" x="32" y="0" width="32" height="31">
<path fill-rule="evenodd" clip-rule="evenodd" d="M32.833 0.5H63.0515V30.6712H32.833V0.5Z" fill="white"/>
</mask>
<g mask="url(#mask4_149_1352)">
<path fill-rule="evenodd" clip-rule="evenodd" d="M47.916 28.1583C41.5955 28.1583 36.3548 23.5156 35.4456 17.4627C34.6135 17.1931 33.7462 17.0039 32.841 16.9102C33.5156 24.6233 40.0051 30.6717 47.916 30.6717C48.3602 30.6717 48.7976 30.6536 49.2284 30.6149C49.199 30.2213 49.1809 29.8194 49.1809 29.4135C49.1809 28.968 49.2038 28.5254 49.2407 28.0912C48.8052 28.1356 48.3639 28.1583 47.916 28.1583ZM47.9157 0.5C39.9639 0.5 33.4488 6.61355 32.833 14.3843C33.6898 14.4591 34.5192 14.6029 35.3333 14.811C35.73 8.22825 41.2136 3.01428 47.9157 3.01428C54.8843 3.01428 60.5283 8.64446 60.5283 15.5857C60.5283 21.162 56.8875 25.8925 51.8432 27.5394C51.7531 28.1486 51.7065 28.7757 51.7065 29.4133C51.7065 29.6753 51.7084 29.9345 51.7265 30.189C58.2416 28.5061 63.0515 22.6064 63.0515 15.5857C63.0515 7.25489 56.2783 0.5 47.9157 0.5Z" fill="white"/>
</g>
<mask id="mask5_149_1352" style="mask-type:alpha" maskUnits="userSpaceOnUse" x="0" y="0" width="31" height="31">
<path fill-rule="evenodd" clip-rule="evenodd" d="M0 0.5H30.2645V30.6712H0V0.5Z" fill="white"/>
</mask>
<g mask="url(#mask5_149_1352)">
<path fill-rule="evenodd" clip-rule="evenodd" d="M30.264 15.5857C30.264 7.25489 23.4909 0.5 15.1291 0.5C6.77509 0.5 -0.000976562 7.25489 -0.000976562 15.5857C-0.000976562 23.9175 6.77509 30.6714 15.1291 30.6714C15.5723 30.6714 16.0059 30.6534 16.4386 30.6156C16.4093 30.2211 16.3912 29.8191 16.3912 29.4133C16.3912 28.9678 16.4149 28.525 16.45 28.0909C16.0154 28.1353 15.576 28.1581 15.1291 28.1581C8.16522 28.1581 2.5193 22.5278 2.5193 15.5857C2.5193 8.64446 8.16522 3.01428 15.1291 3.01428C22.0969 3.01428 27.739 8.64446 27.739 15.5857C27.739 21.163 24.0981 25.8925 19.0548 27.5394C18.9655 28.1486 18.9191 28.7757 18.9191 29.4133C18.9191 29.6753 18.9209 29.9345 18.938 30.189C25.4541 28.5061 30.264 22.6064 30.264 15.5857Z" fill="white"/>
</g>
</g>
</g>
<defs>
<clipPath id="clip0_149_1352">
<rect width="96" height="44" fill="white" transform="translate(0 0.5)"/>
</clipPath>
</defs>
</svg>
